<svg width="146" height="65" viewBox="0 0 146 65" fill="none" xmlns="http://www.w3.org/2000/svg">
<path d="M0.666748 7.2V13.3333H14.4001C25.6001 13.3333 28.8001 13.8667 32.4001 16C41.7334 21.7333 44.8001 34 38.9334 42.8C34.9334 48.8 28.2667 52 19.7334 52H12.6667V34.6667V17.3333H6.66675H0.666748V40.6667V64H13.0667C29.3334 64 37.4667 61.6 44.5334 54.5333C50.0001 49.0667 54.0001 39.6 54.0001 32C54.0001 25.8667 50.0001 16.4 45.4668 11.7333C38.1334 4.13334 32.5334 2.26667 15.7334 1.6L0.666748 0.933337V7.2Z" fill="black"/>
<path d="M44.6667 2.26666C44.6667 2.66666 46.2667 5.2 48.4001 8.13333C51.7334 12.9333 52.4001 13.3333 59.0667 13.3333H66.0001V38.6667V64H72.0001H78.0001V38.6667V13.3333H84.5334C90.5334 13.3333 91.2001 13.0667 94.5334 8C96.4001 5.06666 98.0001 2.53333 98.0001 2.26666C98.0001 2.13333 86.0001 1.86666 71.3334 1.86666C56.6667 1.73333 44.6667 2 44.6667 2.26666Z" fill="black"/>
<path d="M100.133 7.06666L96.9334 12.6667L112.4 13.0667C128.533 13.4667 132.667 14.8 132.667 20C132.667 24.6667 128.267 26.6667 118.267 26.6667H108.667V22C108.667 17.3333 108.667 17.3333 102.667 17.3333H96.6667V40.8V64.2667L115.067 63.7333C132.933 63.3333 133.733 63.2 138.4 59.6C143.733 55.6 146.933 47.7333 145.467 42.2667C145.067 40.4 143.2 37.2 141.467 35.0667C138.267 31.3333 138.267 31.2 140.8 28.1333C143.867 24.4 144.133 16.1333 141.333 10.6667C138 4.26666 132.4 2.26666 117.067 1.86666L103.467 1.59999L100.133 7.06666ZM131.333 40C134.533 43.2 134.667 46.2667 131.733 49.6C130 51.4667 127.6 52 119.067 52H108.667V44.6667V37.3333H118.667C126.933 37.3333 129.2 37.8667 131.333 40Z" fill="black"/>
</svg>
