<?xml version="1.0" standalone="no"?>
<!DOCTYPE svg PUBLIC "-//W3C//DTD SVG 20010904//EN"
 "http://www.w3.org/TR/2001/REC-SVG-20010904/DTD/svg10.dtd">
<svg version="1.0" xmlns="http://www.w3.org/2000/svg"
 width="300.000000pt" height="164.000000pt" viewBox="0 0 300.000000 164.000000"
 preserveAspectRatio="xMidYMid meet">
<metadata>
Created by potrace 1.10, written by Peter Selinger 2001-2011
</metadata>
<g transform="translate(0.000000,164.000000) scale(0.100000,-0.100000)"
fill="#000000" stroke="none">
<path d="M1010 1016 l0 -46 103 0 c84 0 108 -4 135 -20 70 -43 93 -135 49
-201 -30 -45 -80 -69 -144 -69 l-53 0 0 130 0 130 -45 0 -45 0 0 -175 0 -175
93 0 c122 0 183 18 236 71 41 41 71 112 71 169 0 46 -30 117 -64 152 -55 57
-97 71 -223 76 l-113 5 0 -47z"/>
<path d="M1340 1053 c0 -3 12 -22 28 -44 25 -36 30 -39 80 -39 l52 0 0 -190 0
-190 45 0 45 0 0 190 0 190 49 0 c45 0 50 2 75 40 14 22 26 41 26 43 0 1 -90
3 -200 3 -110 1 -200 -1 -200 -3z m230 -68 c-22 -23 -25 -24 -42 -8 -28 25
-22 33 24 33 l41 0 -23 -25z"/>
<path d="M1756 1017 l-24 -42 116 -3 c121 -3 152 -13 152 -52 0 -35 -33 -50
-108 -50 l-72 0 0 35 c0 35 0 35 -45 35 l-45 0 0 -176 0 -176 138 4 c134 3
140 4 175 31 40 30 64 89 53 130 -3 14 -17 38 -30 54 -24 28 -24 29 -5 52 23
28 25 90 4 131 -25 48 -67 63 -182 66 l-102 2 -25 -41z m48 -166 c17 -19 17
-21 -1 -45 -26 -36 -33 -32 -33 19 0 49 8 55 34 26z m208 -26 c4 -21 3 -23
-13 -14 -20 10 -24 21 -12 32 12 13 21 7 25 -18z m-22 -55 c24 -24 25 -47 3
-72 -13 -14 -31 -18 -95 -18 l-78 0 0 55 0 55 75 0 c62 0 79 -4 95 -20z m-180
-128 c-20 -7 -40 7 -40 29 l0 22 26 -24 c14 -13 20 -25 14 -27z"/>
</g>
</svg>
